<?xml version="1.0" encoding="UTF-8" standalone="no"?>
<!DOCTYPE svg PUBLIC "-//W3C//DTD SVG 1.1//EN" "http://www.w3.org/Graphics/SVG/1.1/DTD/svg11.dtd">
<svg version="1.1" xmlns="http://www.w3.org/2000/svg" xmlns:xlink="http://www.w3.org/1999/xlink" preserveAspectRatio="xMidYMid meet" viewBox="0 0 640 640" width="256" height="256"><defs><path d="M324.28 11.14C258.37 11.14 204.94 64.57 204.94 130.48C204.94 196.39 258.37 249.82 324.28 249.82C390.19 249.82 443.62 196.39 443.62 130.48C443.62 64.57 390.19 11.14 324.28 11.14Z" id="e18DGZgk0y"></path><path d="M324.28 11.14C258.37 11.14 204.94 64.57 204.94 130.48C204.94 196.39 258.37 249.82 324.28 249.82C390.19 249.82 443.62 196.39 443.62 130.48C443.62 64.57 390.19 11.14 324.28 11.14Z" id="a3YxCmGI"></path><path d="M324.66 249.82C439.76 249.82 503.71 249.82 516.5 249.82C539.16 249.82 557.67 268.33 557.67 290.99C557.67 313.65 539.16 332.15 516.5 332.15C485.54 332.15 450.41 330.26 440.6 353.3C434.18 369.16 435.31 411.84 435.31 430.34C435.69 472.64 440.97 472.26 469.67 526.27C471.94 530.5 490.07 564.33 492.33 568.56C502.91 588.58 495.36 613.5 475.34 624.08C455.32 634.65 430.4 627.1 419.82 607.08C414.57 597.34 372.58 519.39 367.33 509.65C350.71 478.3 359.02 481.7 324.28 481.7C289.53 481.7 297.84 478.3 281.22 509.65C276.05 519.35 234.66 597 229.49 606.71C218.91 626.72 193.99 634.28 173.97 623.7C153.96 613.13 146.4 588.2 156.98 568.19C159.24 563.96 177.37 530.12 179.64 525.89C208.34 471.88 213.62 472.26 214 429.96C214 411.46 215.14 368.78 208.72 352.92C199.27 330.26 164.15 331.77 132.81 331.77C110.15 331.77 91.64 313.27 91.64 290.61C91.64 268.33 110.15 249.82 132.81 249.82C158.39 249.82 222.34 249.82 324.66 249.82Z" id="bp2R0W4h"></path><path d="M324.66 249.82C439.76 249.82 503.71 249.82 516.5 249.82C539.16 249.82 557.67 268.33 557.67 290.99C557.67 313.65 539.16 332.15 516.5 332.15C485.54 332.15 450.41 330.26 440.6 353.3C434.18 369.16 435.31 411.84 435.31 430.34C435.69 472.64 440.97 472.26 469.67 526.27C471.94 530.5 490.07 564.33 492.33 568.56C502.91 588.58 495.36 613.5 475.34 624.08C455.32 634.65 430.4 627.1 419.82 607.08C414.57 597.34 372.58 519.39 367.33 509.65C350.71 478.3 359.02 481.7 324.28 481.7C289.53 481.7 297.84 478.3 281.22 509.65C276.05 519.35 234.66 597 229.49 606.71C218.91 626.72 193.99 634.28 173.97 623.7C153.96 613.13 146.4 588.2 156.98 568.19C159.24 563.96 177.37 530.12 179.64 525.89C208.34 471.88 213.62 472.26 214 429.96C214 411.46 215.14 368.78 208.72 352.92C199.27 330.26 164.15 331.77 132.81 331.77C110.15 331.77 91.64 313.27 91.64 290.61C91.64 268.33 110.15 249.82 132.81 249.82C158.39 249.82 222.34 249.82 324.66 249.82Z" id="cuW8pvBRP"></path><path d="M324.28 249.82C439.39 249.82 503.34 249.82 516.13 249.82C538.79 249.82 557.29 268.33 557.29 290.99C557.29 313.65 538.79 332.15 516.13 332.15C485.16 332.15 450.04 330.26 440.22 353.3C436.44 361.99 435.31 378.98 434.93 395.6C429.37 395.6 401.55 395.6 351.47 395.6L283.11 249.82L324.28 249.82Z" id="eAyRq4dzH"></path><path d="M324.28 249.82C439.39 249.82 503.34 249.82 516.13 249.82C538.79 249.82 557.29 268.33 557.29 290.99C557.29 313.65 538.79 332.15 516.13 332.15C485.16 332.15 450.04 330.26 440.22 353.3C436.44 361.99 435.31 378.98 434.93 395.6C429.37 395.6 401.55 395.6 351.47 395.6L283.11 249.82L324.28 249.82Z" id="a3RWJGOf5"></path><path d="M283.49 249.82L351.47 395.22C315.89 450.96 296.13 481.93 292.18 488.12C289.53 492.28 286.89 499.07 280.85 509.65C275.67 519.35 234.28 597 229.11 606.71C218.53 626.72 193.61 634.28 173.59 623.7C153.58 613.13 146.02 588.2 156.6 568.19C158.86 563.96 176.99 530.12 179.26 525.89C207.96 471.88 213.25 472.26 213.62 429.96C213.62 411.46 214.76 368.78 208.34 352.92C198.9 330.26 163.77 331.77 132.43 331.77C109.77 331.77 91.26 313.27 91.26 290.61C91.64 268.33 110.15 249.82 132.81 249.82C152.9 249.82 203.13 249.82 283.49 249.82Z" id="b167fLbwp"></path><path d="M283.49 249.82L351.47 395.22C315.89 450.96 296.13 481.93 292.18 488.12C289.53 492.28 286.89 499.07 280.85 509.65C275.67 519.35 234.28 597 229.11 606.71C218.53 626.72 193.61 634.28 173.59 623.7C153.58 613.13 146.02 588.2 156.6 568.19C158.86 563.96 176.99 530.12 179.26 525.89C207.96 471.88 213.25 472.26 213.62 429.96C213.62 411.46 214.76 368.78 208.34 352.92C198.9 330.26 163.77 331.77 132.43 331.77C109.77 331.77 91.26 313.27 91.26 290.61C91.64 268.33 110.15 249.82 132.81 249.82C152.9 249.82 203.13 249.82 283.49 249.82Z" id="bEovdKs0V"></path><path d="M167.93 280.41L92.77 181.09" id="a2iPFeOKL"></path><path d="M104.25 149.06C106.49 167.07 93.71 183.48 75.71 185.73C57.7 187.97 41.29 175.19 39.04 157.18C36.8 139.18 49.58 122.76 67.58 120.52C85.59 118.28 102.01 131.06 104.25 149.06Z" id="b18cdNzcx"></path><path d="M104.25 149.06C106.49 167.07 93.71 183.48 75.71 185.73C57.7 187.97 41.29 175.19 39.04 157.18C36.8 139.18 49.58 122.76 67.58 120.52C85.59 118.28 102.01 131.06 104.25 149.06Z" id="bahYPiWuP"></path><path d="M324.28 330.26C291.95 330.26 265.74 356.47 265.74 388.8C265.74 421.13 291.95 447.34 324.28 447.34C356.61 447.34 382.81 421.13 382.81 388.8C382.81 356.47 356.61 330.26 324.28 330.26Z" id="afnuymuqW"></path><path d="M324.28 330.26C291.95 330.26 265.74 356.47 265.74 388.8C265.74 421.13 291.95 447.34 324.28 447.34C356.61 447.34 382.81 421.13 382.81 388.8C382.81 356.47 356.61 330.26 324.28 330.26Z" id="oEwfS8yUj"></path><path d="M383.19 338.19L356.38 366.14" id="a2TkPucmVf"></path><path d="M294.82 369.16L264.99 343.86" id="g19DwNBRue"></path><path d="M320.12 283.06L284.62 296.27" id="eksfR7fXA"></path><path d="M295.2 422.41L268.01 450.36" id="buH3QaGaC"></path><path d="M479.49 280.79L531.61 193.17" id="c1s2vZt64"></path><path d="M553.72 138.23C569.04 143.05 577.54 159.38 572.72 174.7C567.89 190.02 551.56 198.53 536.24 193.7C520.92 188.87 512.42 172.54 517.24 157.22C522.07 141.91 538.4 133.4 553.72 138.23Z" id="eiX2pJnVU"></path><path d="M553.72 138.23C569.04 143.05 577.54 159.38 572.72 174.7C567.89 190.02 551.56 198.53 536.24 193.7C520.92 188.87 512.42 172.54 517.24 157.22C522.07 141.91 538.4 133.4 553.72 138.23Z" id="d307E705T"></path><path d="M200.03 540.99L110.9 480.19" id="bzKGjSdj"></path><path d="M108.51 439.24C119.9 451.72 119.01 471.07 106.53 482.46C94.05 493.84 74.7 492.96 63.32 480.48C51.93 468 52.82 448.65 65.3 437.26C77.78 425.87 97.12 426.76 108.51 439.24Z" id="a2jaB8ucVU"></path><path d="M108.51 439.24C119.9 451.72 119.01 471.07 106.53 482.46C94.05 493.84 74.7 492.96 63.32 480.48C51.93 468 52.82 448.65 65.3 437.26C77.78 425.87 97.12 426.76 108.51 439.24Z" id="a22g71GHl2"></path><path d="M297.84 119.91L258.94 119.91" id="cIHr2cJLZ"></path><path d="M353.36 138.04L389.61 101.78" id="abxxFw74d"></path><path d="M353.36 101.78L389.61 138.04" id="b5zErIkSm4"></path><path d="M293.31 186.75L287.27 186.75" id="c1DbYLkfb5"></path><path d="M325.41 186.75L319.37 186.75" id="g1lqVyXHu"></path><path d="M357.51 186.75L351.47 186.75" id="bo0KAvmER"></path></defs><g><g><g><g><use xlink:href="#e18DGZgk0y" opacity="1" fill="#ffffff" fill-opacity="1"></use><g><use xlink:href="#e18DGZgk0y" opacity="1" fill-opacity="0" stroke="#000000" stroke-width="1" stroke-opacity="0"></use></g></g><g><use xlink:href="#a3YxCmGI" opacity="1" fill="#000000" fill-opacity="0"></use><g><use xlink:href="#a3YxCmGI" opacity="1" fill-opacity="0" stroke="#000000" stroke-width="5.67" stroke-opacity="1"></use></g></g><g><use xlink:href="#bp2R0W4h" opacity="1" fill="#ffda46" fill-opacity="1"></use><g><use xlink:href="#bp2R0W4h" opacity="1" fill-opacity="0" stroke="#000000" stroke-width="1" stroke-opacity="0"></use></g></g><g><use xlink:href="#cuW8pvBRP" opacity="1" fill="#000000" fill-opacity="0"></use><g><use xlink:href="#cuW8pvBRP" opacity="1" fill-opacity="0" stroke="#000000" stroke-width="5.67" stroke-opacity="1"></use></g></g><g><use xlink:href="#eAyRq4dzH" opacity="1" fill="#e46146" fill-opacity="1"></use><g><use xlink:href="#eAyRq4dzH" opacity="1" fill-opacity="0" stroke="#000000" stroke-width="1" stroke-opacity="0"></use></g></g><g><use xlink:href="#a3RWJGOf5" opacity="1" fill="#000000" fill-opacity="0"></use><g><use xlink:href="#a3RWJGOf5" opacity="1" fill-opacity="0" stroke="#000000" stroke-width="5.67" stroke-opacity="1"></use></g></g><g><use xlink:href="#b167fLbwp" opacity="1" fill="#40c769" fill-opacity="1"></use><g><use xlink:href="#b167fLbwp" opacity="1" fill-opacity="0" stroke="#000000" stroke-width="1" stroke-opacity="0"></use></g></g><g><use xlink:href="#bEovdKs0V" opacity="1" fill="#000000" fill-opacity="0"></use><g><use xlink:href="#bEovdKs0V" opacity="1" fill-opacity="0" stroke="#000000" stroke-width="5.67" stroke-opacity="1"></use></g></g><g><use xlink:href="#a2iPFeOKL" opacity="1" fill="#000000" fill-opacity="0"></use><g><use xlink:href="#a2iPFeOKL" opacity="1" fill-opacity="0" stroke="#000000" stroke-width="5.67" stroke-opacity="1"></use></g></g><g><use xlink:href="#b18cdNzcx" opacity="1" fill="#ffcc00" fill-opacity="1"></use><g><use xlink:href="#b18cdNzcx" opacity="1" fill-opacity="0" stroke="#000000" stroke-width="1" stroke-opacity="0"></use></g></g><g><use xlink:href="#bahYPiWuP" opacity="1" fill="#000000" fill-opacity="0"></use><g><use xlink:href="#bahYPiWuP" opacity="1" fill-opacity="0" stroke="#000000" stroke-width="5.67" stroke-opacity="1"></use></g></g><g><use xlink:href="#afnuymuqW" opacity="1" fill="#46cbff" fill-opacity="1"></use><g><use xlink:href="#afnuymuqW" opacity="1" fill-opacity="0" stroke="#000000" stroke-width="1" stroke-opacity="0"></use></g></g><g><use xlink:href="#oEwfS8yUj" opacity="1" fill="#000000" fill-opacity="0"></use><g><use xlink:href="#oEwfS8yUj" opacity="1" fill-opacity="0" stroke="#000000" stroke-width="5.67" stroke-opacity="1"></use></g></g><g><use xlink:href="#a2TkPucmVf" opacity="1" fill="#000000" fill-opacity="0"></use><g><use xlink:href="#a2TkPucmVf" opacity="1" fill-opacity="0" stroke="#000000" stroke-width="5.67" stroke-opacity="1"></use></g></g><g><use xlink:href="#g19DwNBRue" opacity="1" fill="#000000" fill-opacity="0"></use><g><use xlink:href="#g19DwNBRue" opacity="1" fill-opacity="0" stroke="#000000" stroke-width="5.67" stroke-opacity="1"></use></g></g><g><use xlink:href="#eksfR7fXA" opacity="1" fill="#000000" fill-opacity="0"></use><g><use xlink:href="#eksfR7fXA" opacity="1" fill-opacity="0" stroke="#000000" stroke-width="5.67" stroke-opacity="1"></use></g></g><g><use xlink:href="#buH3QaGaC" opacity="1" fill="#000000" fill-opacity="0"></use><g><use xlink:href="#buH3QaGaC" opacity="1" fill-opacity="0" stroke="#000000" stroke-width="5.67" stroke-opacity="1"></use></g></g><g><use xlink:href="#c1s2vZt64" opacity="1" fill="#000000" fill-opacity="0"></use><g><use xlink:href="#c1s2vZt64" opacity="1" fill-opacity="0" stroke="#000000" stroke-width="5.67" stroke-opacity="1"></use></g></g><g><use xlink:href="#eiX2pJnVU" opacity="1" fill="#40c769" fill-opacity="1"></use><g><use xlink:href="#eiX2pJnVU" opacity="1" fill-opacity="0" stroke="#000000" stroke-width="1" stroke-opacity="0"></use></g></g><g><use xlink:href="#d307E705T" opacity="1" fill="#000000" fill-opacity="0"></use><g><use xlink:href="#d307E705T" opacity="1" fill-opacity="0" stroke="#000000" stroke-width="5.67" stroke-opacity="1"></use></g></g><g><use xlink:href="#bzKGjSdj" opacity="1" fill="#000000" fill-opacity="0"></use><g><use xlink:href="#bzKGjSdj" opacity="1" fill-opacity="0" stroke="#000000" stroke-width="5.67" stroke-opacity="1"></use></g></g><g><use xlink:href="#a2jaB8ucVU" opacity="1" fill="#46cbff" fill-opacity="1"></use><g><use xlink:href="#a2jaB8ucVU" opacity="1" fill-opacity="0" stroke="#000000" stroke-width="1" stroke-opacity="0"></use></g></g><g><use xlink:href="#a22g71GHl2" opacity="1" fill="#000000" fill-opacity="0"></use><g><use xlink:href="#a22g71GHl2" opacity="1" fill-opacity="0" stroke="#000000" stroke-width="5.67" stroke-opacity="1"></use></g></g><g><use xlink:href="#cIHr2cJLZ" opacity="1" fill="#000000" fill-opacity="0"></use><g><use xlink:href="#cIHr2cJLZ" opacity="1" fill-opacity="0" stroke="#000000" stroke-width="5.67" stroke-opacity="1"></use></g></g><g><use xlink:href="#abxxFw74d" opacity="1" fill="#000000" fill-opacity="0"></use><g><use xlink:href="#abxxFw74d" opacity="1" fill-opacity="0" stroke="#000000" stroke-width="5.67" stroke-opacity="1"></use></g></g><g><use xlink:href="#b5zErIkSm4" opacity="1" fill="#000000" fill-opacity="0"></use><g><use xlink:href="#b5zErIkSm4" opacity="1" fill-opacity="0" stroke="#000000" stroke-width="5.67" stroke-opacity="1"></use></g></g><g><use xlink:href="#c1DbYLkfb5" opacity="1" fill="#000000" fill-opacity="0"></use><g><use xlink:href="#c1DbYLkfb5" opacity="1" fill-opacity="0" stroke="#000000" stroke-width="5.67" stroke-opacity="1"></use></g></g><g><use xlink:href="#g1lqVyXHu" opacity="1" fill="#000000" fill-opacity="0"></use><g><use xlink:href="#g1lqVyXHu" opacity="1" fill-opacity="0" stroke="#000000" stroke-width="5.67" stroke-opacity="1"></use></g></g><g><use xlink:href="#bo0KAvmER" opacity="1" fill="#000000" fill-opacity="0"></use><g><use xlink:href="#bo0KAvmER" opacity="1" fill-opacity="0" stroke="#000000" stroke-width="5.67" stroke-opacity="1"></use></g></g></g></g></g></svg>